<?xml version="1.0" encoding="UTF-8" standalone="no"?>
<!-- Created with Inkscape (http://www.inkscape.org/) -->

<svg
   xmlns:dc="http://purl.org/dc/elements/1.1/"
   xmlns:cc="http://creativecommons.org/ns#"
   xmlns:rdf="http://www.w3.org/1999/02/22-rdf-syntax-ns#"
   xmlns:svg="http://www.w3.org/2000/svg"
   xmlns="http://www.w3.org/2000/svg"
   version="1.1"
   width="400"
   height="400"
   id="svg3269">
  <defs
     id="defs3271" />
  <metadata
     id="metadata3274">
    <rdf:RDF>
      <cc:Work
         rdf:about="">
        <dc:format>image/svg+xml</dc:format>
        <dc:type
           rdf:resource="http://purl.org/dc/dcmitype/StillImage" />
        <dc:title></dc:title>
      </cc:Work>
    </rdf:RDF>
  </metadata>
  <g
     transform="translate(-68,-149.36218)"
     id="layer1">
    <g
       transform="matrix(1.4781565,0,0,1.4781565,-35.143099,-346.83143)"
       id="g3340">
      <path
         d="m 202.5506,412.86218 c -1.88976,0.87476 2.63882,3.66165 3.34375,5.21875 l 0.40625,0.5 0.40625,0.28125 c 1.48464,-1.4008 -1.78777,-5.32487 -4.15625,-6 z m 11.46875,1.90625 c -2.42376,0.0541 0.4863,4.3313 0.28124,6 l 0.15625,0.59375 0.28125,0.40625 c 2.31941,-0.68212 1.27146,-5.48089 -0.71874,-7 z m -21.34374,1.09375 c -0.14583,-0.002 -0.27549,0.0159 -0.40624,0.0312 -1.11203,1.4896 3.54865,2.45373 4.74999,3.625 l 0.5625,0.25 0.46874,0.0937 c 0.53629,-1.70979 -3.15692,-3.92769 -5.37499,-4 z m 29.81247,5 c -1.3056,0.17555 -1.37005,4.50366 -2.21875,5.875 l -0.15625,0.65625 -0.0312,0.46875 c 1.97636,0.20573 3.54623,-4.75937 2.84374,-6.9375 -0.1647,-0.0794 -0.30302,-0.0815 -0.4375,-0.0625 z m -16.93748,0.90625 c -0.48021,0.009 -0.96875,0.0312 -1.46875,0.0937 7.99999,1.48031 13.07536,7.50124 14.99999,13 -1.39173,-7.44663 -6.32807,-13.2232 -13.53124,-13.09375 z m -17.99998,1.09375 c -1.32173,-0.005 -2.66454,0.34183 -3.4375,0.9375 -0.27568,2.04006 4.31897,0.43575 5.9375,0.9375 l 0.59374,-0.0312 0.4375,-0.125 c -0.20116,-1.1693 -1.83364,-1.71288 -3.53124,-1.71875 z m 15.53123,1 c -2.40187,0.0323 -5.71666,1.15885 -7.99999,3 0.91618,-0.49469 3.02309,-1.22123 4,-1.5625 2.85347,-0.81186 5.99999,-0.4375 7.99999,0.5625 -5.5377,-2 -14.20325,0.89632 -15.99999,7.9375 1.26284,-2.02896 2.97714,-3.78346 5.06249,-5.0625 11.41568,-6.23758 20.93749,2.125 21.93749,13.125 2,-9 -6.41327,-18.11007 -14.99999,-18 z m 1,4 c -6.5854,0.12213 -13.99999,4 -12.99999,14 0.54525,-2.72627 1.39848,-5.16339 2.4375,-7.03125 6.57282,-8.97498 18.56485,-6.4927 21.59373,3.5 1.9337,5.23471 -1.01934,14.11715 -9.74999,9.6875 -5.26153,-3.0711 -6.39666,-14.29392 -0.28125,-14.15625 7.85981,1.55471 8.18557,10.95009 3.90625,10.96875 -2.8874,0.0465 -3.88922,-2.91244 -4.90625,-4.96875 0,5 5,8.48408 7.99999,4 3.99999,-6 -6.27525,-14.98867 -11.62498,-10.9375 -5.9287,3.94144 -3.375,15.9375 2.62499,18.9375 -3.99999,-4 -7.97628,-14.68058 -0.6875,-18.53125 -5.28879,4.53817 -2.08947,15.10155 3.09375,17.8125 5.51976,2.7632 12.59374,-2.28125 11.59374,-10.28125 -0.84035,-4.11967 -2.44163,-8.37721 -6,-11 -1.99712,-1.46772 -4.42086,-2.04746 -6.99999,-2 z m 23.15621,0.96875 c -0.0499,-0.007 -0.10268,0.0231 -0.15623,0.0312 -1.15605,0.17375 -2.71889,3.88765 -3.87499,4.78125 l -0.34376,0.53125 -0.21875,0.5 c 1.6067,1.09453 4.77624,-3.08232 5,-5.53125 -0.13776,-0.19034 -0.25573,-0.2905 -0.40627,-0.3125 z m -24.03121,1.03125 c -10.55573,0.93515 -12.85294,11.99465 -9.99999,16.09375 -1.15303,-14.93791 10.86897,-18.00706 17.37498,-12.09375 7.84772,8.03265 -0.62242,16.95369 -5.49999,11 -1.22728,-1.68355 -2,-3.58072 -2,-6 0,-2 0.53384,-3.98278 3,-3.625 -3,-1.38163 -3.87762,1.19579 -4,3.625 0,7.56568 4.90638,11.27134 9.99999,8 -0.5625,1 -1.99999,1.53487 -2.99999,1.625 1.99999,0.38384 3.02026,-0.16659 4.37499,-1.625 4.46186,-7.29794 -1.80727,-16.60459 -10.24999,-17 z m -16.59373,2 c -1.89128,0.0743 -4.72607,1.84395 -5.53125,3.4375 0.64218,1.9552 4.33432,-1.83653 6.09375,-2.21875 l 0.5625,-0.3125 0.34375,-0.34375 c -0.31472,-0.41602 -0.83719,-0.58823 -1.46875,-0.5625 z m 11.46874,2 c -4.58958,4 -6,13 -1,16 -2.38228,-4 -2,-12 1,-16 z m 8.99999,2 c 0.3936,0.54761 2.99595,2.99281 2.37499,5.4375 -3.75602,-7.86413 -6.35511,-5.42539 -5.06249,-2.0625 0.70738,1.63711 2.7117,5.62355 5.46874,4.40625 3.24295,-1.7827 -0.24902,-7.78125 -2.78124,-7.78125 z m 21.12497,2 c -1.37532,0.19425 -3.84836,2.48785 -5.18749,2.78125 l -0.59375,0.3125 -0.34375,0.34375 c 1.2597,1.68048 5.9273,-0.76597 7.00004,-2.90625 -0.12137,-0.36783 -0.32445,-0.50826 -0.62502,-0.53125 -0.0809,-0.007 -0.15833,-0.0129 -0.25003,0 z m -41.7812,2 c -1.6906,0.0945 -4.14774,3.54041 -4.34375,5.6875 1.17601,1.61483 3.09861,-3.4393 4.46874,-4.5 l 0.34376,-0.53125 0.1875,-0.46875 c -0.20111,-0.13907 -0.41709,-0.19885 -0.65625,-0.1875 z m 3.46875,7 c -1.88717,0.10425 -3.306,4.79276 -2.625,6.90625 1.75283,0.84359 1.69102,-4.26717 2.625,-5.78125 l 0.15625,-0.65625 0.0312,-0.46875 c -0.0619,-0.007 -0.12551,-0.002 -0.18749,0 z m 34.15621,2 c -1.59567,0.023 -3.74181,0.37841 -4.78124,0.0937 l -0.65625,0.0312 -0.53125,0.15635 c 0.40934,2.10494 5.98301,2.16595 7.99998,0.78125 0.13865,-0.90605 -0.78905,-1.08035 -2.03124,-1.0625 z m -27.62497,4 c -2.31863,0.68213 -1.30553,5.48089 0.6875,7 2.42291,-0.0541 -0.45501,-4.3293 -0.25,-6 l -0.15625,-0.59375 -0.28125,-0.40625 z m 15.71873,1 c -0.57241,1.82975 3.65071,4.21295 5.78125,3.96875 1.11135,-1.4944 -3.57728,-2.41673 -4.78125,-3.59375 l -0.5625,-0.28125 -0.4375,-0.0937 z m -8.59374,1 c -1.48364,1.4008 1.82322,5.32816 4.1875,6 1.89335,-0.87476 -2.63981,-3.69288 -3.34375,-5.25 l -0.40625,-0.46875 -0.4375,-0.28125 z"
         id="path3998"
         style="fill:#ffcc00;fill-opacity:1;fill-rule:nonzero;stroke:none" />
    </g>
    <g
       id="text3345"
       style="font-size:23.65050316px;font-style:normal;font-variant:normal;font-weight:normal;font-stretch:normal;text-align:center;line-height:150%;letter-spacing:0px;word-spacing:0px;text-anchor:middle;fill:#32a9ef;fill-opacity:1;stroke:none;font-family:Roboto Condensed;-inkscape-font-specification:Roboto Condensed">
      <path
         d="m 240.46358,373.47585 0,2.27498 c -0.88537,-0.42342 -1.72068,-0.73906 -2.50594,-0.94695 -0.78528,-0.20785 -1.5436,-0.31178 -2.27497,-0.31179 -1.2703,10e-6 -2.25189,0.24637 -2.94477,0.73907 -0.68519,0.49274 -1.02778,1.19332 -1.02778,2.10176 0,0.76218 0.22711,1.33959 0.68134,1.73221 0.46192,0.38495 1.33187,0.69675 2.60987,0.9354 l 1.40887,0.2887 c 1.7399,0.33106 3.02174,0.91616 3.84551,1.75531 0.83145,0.83147 1.24718,1.94779 1.2472,3.34895 -2e-5,1.67063 -0.56202,2.93707 -1.68603,3.79932 -1.11632,0.86226 -2.75615,1.29339 -4.91948,1.29339 -0.81608,0 -1.68603,-0.0924 -2.60987,-0.27715 -0.91616,-0.18477 -1.86695,-0.45808 -2.85238,-0.81992 l 0,-2.402 c 0.94694,0.53121 1.87463,0.93155 2.78309,1.201 0.90844,0.26946 1.80149,0.40418 2.67916,0.40418 1.33187,0 2.35965,-0.26175 3.08334,-0.78527 0.72367,-0.52351 1.08551,-1.27028 1.08552,-2.24033 -1e-5,-0.84685 -0.26177,-1.50894 -0.78527,-1.98627 -0.51583,-0.47732 -1.36654,-0.83531 -2.55213,-1.07397 l -1.42042,-0.27716 c -1.73992,-0.34643 -2.99866,-0.88919 -3.77623,-1.62828 -0.77757,-0.73907 -1.16635,-1.76685 -1.16635,-3.08334 0,-1.52434 0.53506,-2.72534 1.60518,-3.60301 1.07782,-0.87764 2.55982,-1.31646 4.44602,-1.31648 0.80836,2e-5 1.63212,0.0731 2.47129,0.21941 0.83915,0.1463 1.69756,0.36571 2.57523,0.65824"
         id="path2998" />
      <path
         d="m 252.1387,374.49209 c -1.69372,10e-6 -3.041,0.63131 -4.04183,1.89388 -0.99314,1.26261 -1.48971,2.98327 -1.4897,5.162 -1e-5,2.17105 0.49656,3.88787 1.4897,5.15046 1.00083,1.26259 2.34811,1.89388 4.04183,1.89388 1.69371,0 3.03329,-0.63129 4.01874,-1.89388 0.99312,-1.26259 1.48969,-2.97941 1.48971,-5.15046 -2e-5,-2.17873 -0.49659,-3.89939 -1.48971,-5.162 -0.98545,-1.26257 -2.32503,-1.89387 -4.01874,-1.89388 m 0,-1.89389 c 2.41739,2e-5 4.34977,0.81223 5.79715,2.43665 1.44734,1.61674 2.17102,3.78778 2.17104,6.51312 -2e-5,2.71766 -0.7237,4.8887 -2.17104,6.51313 -1.44738,1.61673 -3.37976,2.4251 -5.79715,2.4251 -2.4251,0 -4.36518,-0.80837 -5.82024,-2.4251 -1.44736,-1.61673 -2.17104,-3.78777 -2.17104,-6.51313 0,-2.72534 0.72368,-4.89638 2.17104,-6.51312 1.45506,-1.62442 3.39514,-2.43663 5.82024,-2.43665"
         id="path3000" />
      <path
         d="m 271.93214,382.06764 c 0.50041,0.16938 0.98543,0.53122 1.45506,1.08552 0.47731,0.55431 0.95463,1.31649 1.43197,2.28652 l 2.36736,4.71163 -2.50594,0 -2.20569,-4.42293 c -0.56971,-1.1548 -1.12402,-1.92082 -1.66292,-2.29807 -0.53122,-0.37723 -1.25875,-0.56585 -2.18259,-0.56585 l -2.54058,0 0,7.28685 -2.33272,0 0,-17.24131 5.26593,0 c 1.97087,10e-6 3.44132,0.4119 4.41138,1.23564 0.97002,0.82378 1.45504,2.06713 1.45506,3.73004 -2e-5,1.08553 -0.25408,1.98628 -0.76218,2.70225 -0.50043,0.71599 -1.23181,1.21256 -2.19414,1.48971 m -5.84333,-7.24066 0,6.12049 2.93321,0 c 1.12401,10e-6 1.97087,-0.2579 2.54058,-0.77372 0.5774,-0.5235 0.8661,-1.28953 0.86611,-2.29807 -1e-5,-1.00852 -0.28871,-1.76685 -0.86611,-2.27498 -0.56971,-0.5158 -1.41657,-0.7737 -2.54058,-0.77372 l -2.93321,0"
         id="path3002" />
      <path
         d="m 288.37663,382.06764 c 0.50041,0.16938 0.98543,0.53122 1.45506,1.08552 0.47731,0.55431 0.95463,1.31649 1.43197,2.28652 l 2.36736,4.71163 -2.50594,0 -2.20569,-4.42293 c -0.56971,-1.1548 -1.12402,-1.92082 -1.66292,-2.29807 -0.53122,-0.37723 -1.25875,-0.56585 -2.18259,-0.56585 l -2.54059,0 0,7.28685 -2.33271,0 0,-17.24131 5.26593,0 c 1.97087,10e-6 3.44132,0.4119 4.41137,1.23564 0.97003,0.82378 1.45505,2.06713 1.45506,3.73004 -1e-5,1.08553 -0.25407,1.98628 -0.76217,2.70225 -0.50043,0.71599 -1.23181,1.21256 -2.19414,1.48971 m -5.84334,-7.24066 0,6.12049 2.93322,0 c 1.12401,10e-6 1.97087,-0.2579 2.54058,-0.77372 0.5774,-0.5235 0.8661,-1.28953 0.86611,-2.29807 -10e-6,-1.00852 -0.28871,-1.76685 -0.86611,-2.27498 -0.56971,-0.5158 -1.41657,-0.7737 -2.54058,-0.77372 l -2.93322,0"
         id="path3004" />
      <path
         d="m 292.75336,372.91 2.50594,0 4.78091,7.09053 4.74627,-7.09053 2.50594,0 -6.0974,9.03061 0,8.2107 -2.34426,0 0,-8.2107 -6.0974,-9.03061"
         id="path3006" />
      <path
         d="m 149.86876,408.38575 3.14108,0 7.64484,14.42358 0,-14.42358 2.26343,0 0,17.24131 -3.14109,0 -7.64484,-14.42357 0,14.42357 -2.26342,0 0,-17.24131"
         id="path3008" />
      <path
         d="m 174.55859,409.96784 c -1.69373,2e-5 -3.04101,0.63131 -4.04184,1.89389 -0.99314,1.2626 -1.48971,2.98327 -1.4897,5.162 -1e-5,2.17105 0.49656,3.88786 1.4897,5.15045 1.00083,1.26259 2.34811,1.89389 4.04184,1.89389 1.69371,0 3.03328,-0.6313 4.01873,-1.89389 0.99313,-1.26259 1.48969,-2.9794 1.48971,-5.15045 -2e-5,-2.17873 -0.49658,-3.8994 -1.48971,-5.162 -0.98545,-1.26258 -2.32502,-1.89387 -4.01873,-1.89389 m 0,-1.89389 c 2.41739,2e-5 4.34977,0.81224 5.79714,2.43665 1.44735,1.61675 2.17103,3.78779 2.17104,6.51313 -1e-5,2.71766 -0.72369,4.8887 -2.17104,6.51313 -1.44737,1.61673 -3.37975,2.4251 -5.79714,2.4251 -2.42511,0 -4.36519,-0.80837 -5.82024,-2.4251 -1.44737,-1.61673 -2.17105,-3.78777 -2.17105,-6.51313 0,-2.72534 0.72368,-4.89638 2.17105,-6.51313 1.45505,-1.62441 3.39513,-2.43663 5.82024,-2.43665"
         id="path3010" />
      <path
         d="m 201.88138,417.54339 c 0.50041,0.16938 0.98543,0.53122 1.45506,1.08552 0.47731,0.55432 0.95463,1.31649 1.43197,2.28653 l 2.36736,4.71162 -2.50594,0 -2.20569,-4.42292 c -0.56971,-1.1548 -1.12402,-1.92083 -1.66292,-2.29807 -0.53122,-0.37723 -1.25875,-0.56585 -2.18259,-0.56586 l -2.54058,0 0,7.28685 -2.33272,0 0,-17.24131 5.26593,0 c 1.97087,2e-5 3.44132,0.4119 4.41138,1.23565 0.97002,0.82378 1.45504,2.06712 1.45506,3.73003 -2e-5,1.08554 -0.25408,1.98629 -0.76218,2.70226 -0.50043,0.71599 -1.23181,1.21256 -2.19414,1.4897 m -5.84333,-7.24065 0,6.12049 2.93321,0 c 1.12401,1e-5 1.97087,-0.2579 2.54058,-0.77373 0.5774,-0.5235 0.8661,-1.28952 0.86611,-2.29807 -1e-5,-1.00852 -0.28871,-1.76684 -0.86611,-2.27497 -0.56971,-0.5158 -1.41657,-0.77371 -2.54058,-0.77372 l -2.93321,0"
         id="path3012" />
      <path
         d="m 210.14982,408.38575 10.90141,0 0,1.96318 -8.56869,0 0,5.10426 8.21069,0 0,1.96317 -8.21069,0 0,6.24752 8.77655,0 0,1.96318 -11.10927,0 0,-17.24131"
         id="path3014" />
      <path
         d="m 235.4517,408.95161 0,2.27497 c -0.88537,-0.42341 -1.72068,-0.73906 -2.50594,-0.94694 -0.78528,-0.20785 -1.5436,-0.31178 -2.27497,-0.3118 -1.2703,2e-5 -2.25189,0.24638 -2.94477,0.73908 -0.68519,0.49273 -1.02778,1.19332 -1.02778,2.10175 0,0.76219 0.22711,1.33959 0.68134,1.73222 0.46192,0.38494 1.33188,0.69674 2.60987,0.93539 l 1.40887,0.28871 c 1.7399,0.33105 3.02174,0.91615 3.84551,1.75531 0.83145,0.83147 1.24719,1.94778 1.2472,3.34894 -1e-5,1.67063 -0.56202,2.93707 -1.68602,3.79933 -1.11633,0.86226 -2.75616,1.29339 -4.91949,1.29339 -0.81607,0 -1.68603,-0.0924 -2.60987,-0.27716 -0.91615,-0.18477 -1.86695,-0.45807 -2.85238,-0.81991 l 0,-2.40201 c 0.94694,0.53122 1.87464,0.93155 2.78309,1.201 0.90844,0.26946 1.8015,0.40419 2.67916,0.40419 1.33187,0 2.35965,-0.26176 3.08334,-0.78527 0.72367,-0.52351 1.08551,-1.27029 1.08552,-2.24033 -1e-5,-0.84686 -0.26177,-1.50895 -0.78527,-1.98628 -0.51582,-0.47731 -1.36653,-0.8353 -2.55213,-1.07397 l -1.42042,-0.27715 c -1.73991,-0.34644 -2.99865,-0.8892 -3.77622,-1.62829 -0.77758,-0.73906 -1.16636,-1.76684 -1.16636,-3.08334 0,-1.52433 0.53506,-2.72533 1.60518,-3.603 1.07782,-0.87764 2.55983,-1.31647 4.44602,-1.31649 0.80836,2e-5 1.63212,0.0732 2.4713,0.21942 0.83915,0.14629 1.69755,0.3657 2.57522,0.65824"
         id="path3016" />
      <path
         d="m 239.86307,408.38575 2.34427,0 0,10.47413 c -10e-6,1.8477 0.33489,3.17958 1.00468,3.99564 0.66979,0.80837 1.75531,1.21255 3.25657,1.21255 1.49354,0 2.57521,-0.40418 3.24501,-1.21255 0.66978,-0.81606 1.00467,-2.14794 1.00469,-3.99564 l 0,-10.47413 2.34426,0 0,10.76283 c -2e-5,2.24803 -0.55817,3.9456 -1.67447,5.09271 -1.10863,1.14711 -2.74846,1.72067 -4.91949,1.72067 -2.17875,0 -3.82628,-0.57356 -4.94259,-1.72067 -1.10862,-1.14711 -1.66293,-2.84468 -1.66293,-5.09271 l 0,-10.76283"
         id="path3018" />
      <path
         d="m 257.45082,408.38575 2.33272,0 0,15.27813 8.39547,0 0,1.96318 -10.72819,0 0,-17.24131"
         id="path3020" />
      <path
         d="m 264.99173,408.38575 14.58525,0 0,1.96318 -6.12049,0 0,15.27813 -2.34426,0 0,-15.27813 -6.1205,0 0,-1.96318"
         id="path3022" />
      <path
         d="m 292.17595,408.95161 0,2.27497 c -0.88536,-0.42341 -1.72068,-0.73906 -2.50594,-0.94694 -0.78528,-0.20785 -1.5436,-0.31178 -2.27497,-0.3118 -1.2703,2e-5 -2.25189,0.24638 -2.94477,0.73908 -0.68519,0.49273 -1.02778,1.19332 -1.02778,2.10175 0,0.76219 0.22711,1.33959 0.68134,1.73222 0.46192,0.38494 1.33188,0.69674 2.60987,0.93539 l 1.40887,0.28871 c 1.7399,0.33105 3.02174,0.91615 3.84552,1.75531 0.83145,0.83147 1.24718,1.94778 1.24719,3.34894 -1e-5,1.67063 -0.56202,2.93707 -1.68602,3.79933 -1.11633,0.86226 -2.75616,1.29339 -4.91949,1.29339 -0.81607,0 -1.68603,-0.0924 -2.60987,-0.27716 -0.91615,-0.18477 -1.86695,-0.45807 -2.85238,-0.81991 l 0,-2.40201 c 0.94694,0.53122 1.87464,0.93155 2.78309,1.201 0.90845,0.26946 1.8015,0.40419 2.67916,0.40419 1.33187,0 2.35965,-0.26176 3.08334,-0.78527 0.72367,-0.52351 1.08551,-1.27029 1.08552,-2.24033 -1e-5,-0.84686 -0.26177,-1.50895 -0.78527,-1.98628 -0.51582,-0.47731 -1.36653,-0.8353 -2.55213,-1.07397 l -1.42041,-0.27715 c -1.73992,-0.34644 -2.99866,-0.8892 -3.77623,-1.62829 -0.77758,-0.73906 -1.16636,-1.76684 -1.16636,-3.08334 0,-1.52433 0.53506,-2.72533 1.60519,-3.603 1.07781,-0.87764 2.55982,-1.31647 4.44601,-1.31649 0.80836,2e-5 1.63212,0.0732 2.4713,0.21942 0.83915,0.14629 1.69755,0.3657 2.57522,0.65824"
         id="path3024" />
      <path
         d="m 304.38229,408.38575 9.90827,0 0,1.96318 -7.57555,0 0,5.08116 6.83647,0 0,1.96318 -6.83647,0 0,8.23379 -2.33272,0 0,-17.24131"
         id="path3026" />
      <path
         d="m 325.00719,409.96784 c -1.69373,2e-5 -3.041,0.63131 -4.04183,1.89389 -0.99314,1.2626 -1.48971,2.98327 -1.48971,5.162 0,2.17105 0.49657,3.88786 1.48971,5.15045 1.00083,1.26259 2.3481,1.89389 4.04183,1.89389 1.69371,0 3.03329,-0.6313 4.01874,-1.89389 0.99312,-1.26259 1.48969,-2.9794 1.4897,-5.15045 -10e-6,-2.17873 -0.49658,-3.8994 -1.4897,-5.162 -0.98545,-1.26258 -2.32503,-1.89387 -4.01874,-1.89389 m 0,-1.89389 c 2.41739,2e-5 4.34977,0.81224 5.79715,2.43665 1.44734,1.61675 2.17102,3.78779 2.17104,6.51313 -2e-5,2.71766 -0.7237,4.8887 -2.17104,6.51313 -1.44738,1.61673 -3.37976,2.4251 -5.79715,2.4251 -2.42511,0 -4.36518,-0.80837 -5.82024,-2.4251 -1.44736,-1.61673 -2.17104,-3.78777 -2.17104,-6.51313 0,-2.72534 0.72368,-4.89638 2.17104,-6.51313 1.45506,-1.62441 3.39513,-2.43663 5.82024,-2.43665"
         id="path3028" />
      <path
         d="m 336.35898,408.38575 2.34426,0 0,10.47413 c 0,1.8477 0.33489,3.17958 1.00469,3.99564 0.66978,0.80837 1.7553,1.21255 3.25656,1.21255 1.49354,0 2.57521,-0.40418 3.24501,-1.21255 0.66978,-0.81606 1.00468,-2.14794 1.00469,-3.99564 l 0,-10.47413 2.34426,0 0,10.76283 c -10e-6,2.24803 -0.55817,3.9456 -1.67447,5.09271 -1.10863,1.14711 -2.74846,1.72067 -4.91949,1.72067 -2.17875,0 -3.82627,-0.57356 -4.94259,-1.72067 -1.10862,-1.14711 -1.66292,-2.84468 -1.66292,-5.09271 l 0,-10.76283"
         id="path3030" />
      <path
         d="m 353.94673,408.38575 3.14108,0 7.64484,14.42358 0,-14.42358 2.26343,0 0,17.24131 -3.14108,0 -7.64485,-14.42357 0,14.42357 -2.26342,0 0,-17.24131"
         id="path3032" />
      <path
         d="m 373.97112,410.30274 0,13.40734 2.81774,0 c 2.3789,0 4.11881,-0.53891 5.21974,-1.61674 1.1086,-1.07781 1.66291,-2.77923 1.66293,-5.10426 -2e-5,-2.3096 -0.55433,-3.99947 -1.66293,-5.06961 -1.10093,-1.07781 -2.84084,-1.61672 -5.21974,-1.61673 l -2.81774,0 m -2.33271,-1.91699 4.79246,0 c 3.34124,2e-5 5.79328,0.69675 7.35614,2.09021 1.56282,1.38578 2.34424,3.55682 2.34426,6.51312 -2e-5,2.97172 -0.78529,5.15431 -2.35581,6.54778 -1.57056,1.39347 -4.01875,2.0902 -7.34459,2.0902 l -4.79246,0 0,-17.24131"
         id="path3034" />
    </g>
  </g>
</svg>
